<svg xmlns="http://www.w3.org/2000/svg" viewBox="0 0 24 24" width="24" height="24" aria-hidden="true">
  <path fill="currentColor" d="M12 2a10 10 0 00-3.16 19.49c.5.09.68-.22.68-.48l-.01-1.69c-2.78.6-3.37-1.34-3.37-1.34-.45-1.15-1.1-1.46-1.1-1.46-.9-.61.07-.6.07-.6 1 .07 1.53 1.03 1.53 1.03.9 1.52 2.36 1.08 2.94.82.09-.66.35-1.09.63-1.34-2.22-.25-4.55-1.11-4.55-4.95 0-1.09.39-1.98 1.03-2.68-.1-.25-.45-1.27.1-2.65 0 0 .85-.27 2.8 1.02a9.7 9.7 0 015.1 0c1.95-1.29 2.8-1.02 2.8-1.02.55 1.38.2 2.4.1 2.65.64.7 1.03 1.59 1.03 2.68 0 3.85-2.34 4.69-4.57 4.94.36.31.68.92.68 1.86l-.01 2.76c0 .26.18.57.69.47A10 10 0 0012 2z"/>
</svg> 